<?xml version="1.0" encoding="UTF-8" standalone="no"?> <svg id="Layer_1" data-name="Layer 1" xmlns="http://www.w3.org/2000/svg" viewBox="0 0 128 128"><title>b</title><path class="cls-1" d="M121.496,48.42564a1.88661,1.88661,0,0,0-1.8793-1.70605h-2.7901l-.33766-3.52315-1.06626-11.28921c-11.29363.70642-22.1741,3.26548-32.17044,9.752-9.99633-6.4865-20.87678-9.04556-32.17041-9.752L50.01112,43.19644l-.33321,3.52315h-2.7901a1.88659,1.88659,0,0,0-1.8793,1.70605L42.33392,76.67748h.8086A5.01326,5.01326,0,0,1,48.154,81.68454v5.27807a6.47733,6.47733,0,0,1,.26214.87967l1.98151,5.85118c12.511.2488,24.05782,2.137,32.46362,9.38322L50.793,94.85305l1.79491,5.29138,30.66429,7.85934,42.8465-10.98265ZM67.15148,90.61459a86.71647,86.71647,0,0,0-16.66942-1.69716l3.44318-36.36.44428-4.68274.10662-1.15512.33321-3.52315.582-6.11776a59.22068,59.22068,0,0,1,21.03227,6.11776q2.16587,1.13293,4.22957,2.4702l1.62164,1.05294.9774.63532.97742-.63532,1.62164-1.05294c1.37726-.893,2.78121-1.71492,4.22954-2.4702a59.22083,59.22083,0,0,1,21.0323-6.11776l.57756,6.11776.33321,3.52315.11107,1.15512.44428,4.68274,3.44318,36.36a86.80482,86.80482,0,0,0-16.67387,1.69716,43.12744,43.12744,0,0,0-16.09634,6.71309A43.149,43.149,0,0,0,67.15148,90.61459Zm16.49617,12.46209c9.34325-8.05925,22.57839-9.48985,36.69322-9.40988Z"/><path class="cls-2" d="M45.19566,88.71379a3.08406,3.08406,0,0,0-.37486-1.02095V81.68617a1.679,1.679,0,0,0-1.6798-1.67856H23.3644a1.679,1.679,0,0,0-1.67983,1.67856v6.00667a3.05625,3.05625,0,0,1,.47848-.61921h9.49044a1.59921,1.59921,0,0,1,0,3.19843H20.78133l-4.78741,14.1256a3.07654,3.07654,0,0,0,3.02954,3.60783H47.48318a3.075,3.075,0,0,0,3.02829-3.60783Z"/><path class="cls-2" d="M25.95468,71.02645a4.21524,4.21524,0,0,0,1.72379.39986l2.93672,5.60238h4.69161l-3.94967-7.53058a4.27408,4.27408,0,0,0,.64866-1.64827A22.75962,22.75962,0,0,0,29.7,52.33553c-.08441-.15993-.16883-.31542-.25324-.47538l-1.284,3.68756a1.31212,1.31212,0,0,1-1.44836.86633,1.32146,1.32146,0,0,1-1.10626-1.27509l-.16438-9.361c-3.04776-4.3895-6.50873-9.25881-9.88082-13.75938l-.65755,1.88375a1.32936,1.32936,0,0,1-.63087.72863,1.28679,1.28679,0,0,1-.81746.13328,1.30507,1.30507,0,0,1-1.10184-1.27064l-.10662-5.80676v-.00445c-1.61274-2.06147-3.16328-3.963-4.59386-5.61128a6.91259,6.91259,0,0,0-1.866-1.54609,2.68739,2.68739,0,0,0-2.62127-.311,2.6995,2.6995,0,0,0-1.23954,2.33692,7.06715,7.06715,0,0,0,.21325,2.41245c1.4617,5.7179,3.98077,13.24848,6.57536,20.468L13.2571,47.0086a1.31218,1.31218,0,0,1,.86635,1.44836,1.31315,1.31315,0,0,1-1.27509,1.10626l-2.61238.04442c.95964,2.608,1.90151,5.10482,2.77676,7.3973a30.9748,30.9748,0,0,0,1.48833,3.301A22.801,22.801,0,0,0,25.95468,71.02645Z"/></svg>